<svg width="200" height="200" viewBox="0 0 200 200" fill="none" xmlns="http://www.w3.org/2000/svg">
<g filter="url(#filter0_iin_10_49)">
<g clip-path="url(#clip0_10_49)">
<rect width="200" height="200" rx="60" fill="url(#paint0_linear_10_49)"/>
<rect width="200" height="200" rx="60" fill="black" fill-opacity="0.01"/>
<g filter="url(#filter2_i_10_49)">
<mask id="mask0_10_49" style="mask-type:alpha" maskUnits="userSpaceOnUse" x="39" y="33" width="116" height="131">
<path d="M70.4746 130.154C77.1018 129.244 84.8783 129.473 91.6631 130.178C98.4476 130.882 104.195 132.194 106.902 133.051C108.404 133.54 76.3646 140.068 90.2422 163.437C95.2087 167.322 52.8883 142.769 56.1807 136.97C58.3694 133.115 63.8475 131.064 70.4746 130.154ZM104.288 66.1826C109.793 66.1611 115.495 67.2035 120.348 69.8047C130.874 75.4481 137.397 88.43 143.508 97.1758C149.618 105.921 155.317 110.43 154.906 116.297C154.496 122.164 147.976 129.389 141.266 133.346C134.555 137.302 127.653 137.989 122.518 133.568C117.383 129.148 114.014 119.62 107.849 115.526C101.683 111.433 92.7201 112.775 83.8818 113.524C75.0437 114.274 66.3307 114.431 58.8018 112.313C52.4712 110.533 46.9779 107.146 44.0898 104.627C44.0886 104.627 44.0872 104.626 44.0859 104.626C42.9177 104.316 41.8627 103.634 41.0391 102.749C40.2155 101.864 39.6173 100.783 39.2256 99.6396C39.1049 99.2872 39.0025 98.9223 39 98.5498C38.9975 98.1774 39.1049 97.7924 39.3584 97.5195C39.5922 97.2678 39.9435 97.1301 40.2861 97.1553L49.5029 97.1953C49.8154 97.0674 50.1474 96.9305 50.502 96.7871C55.983 94.5697 66.6847 90.4308 72.5977 85.2383C78.5102 80.0459 79.6342 73.7994 87.4619 69.8281C91.6817 67.6873 97.85 66.2079 104.288 66.1826ZM94.3242 81.8916C93.6621 81.8917 93.0062 82.0244 92.3945 82.2812C91.7829 82.5381 91.2269 82.9142 90.7588 83.3887C90.2907 83.8632 89.9194 84.4269 89.666 85.0469C89.4127 85.6669 89.2822 86.3319 89.2822 87.0029C89.2823 88.3583 89.8132 89.6587 90.7588 90.6172C91.7044 91.5756 92.987 92.114 94.3242 92.1143C94.9865 92.1143 95.643 91.9824 96.2549 91.7256C96.8667 91.4688 97.4224 91.0917 97.8906 90.6172C98.3589 90.1426 98.7309 89.5791 98.9844 88.959C99.2377 88.339 99.3681 87.674 99.3682 87.0029C99.3682 86.3318 99.2378 85.6669 98.9844 85.0469C98.7309 84.4268 98.3589 83.8633 97.8906 83.3887C97.4224 82.9142 96.8666 82.5381 96.2549 82.2812C95.643 82.0244 94.9865 81.8916 94.3242 81.8916ZM106.243 58.6719L133.227 33.6562L145.478 86.5371C145.478 86.5371 130.779 68.9491 129.927 67.6104C128.2 64.8952 129.01 50.4458 129.011 50.4268L117.486 61.3887C117.486 61.3887 96.5932 53.3314 81.6025 67.5723L81.5088 33L106.243 58.6719Z" fill="white"/>
</mask>
<g mask="url(#mask0_10_49)">
<g filter="url(#filter3_d_10_49)">
<rect x="34.7749" y="33" width="125.907" height="138.582" rx="3" fill="url(#paint1_linear_10_49)" fill-opacity="0.65" shape-rendering="crispEdges"/>
</g>
</g>
</g>
</g>
</g>
<defs>
<filter id="filter0_iin_10_49" x="0" y="0" width="200" height="200" filterUnits="userSpaceOnUse" color-interpolation-filters="sRGB">
<feFlood flood-opacity="0" result="BackgroundImageFix"/>
<feBlend mode="normal" in="SourceGraphic" in2="BackgroundImageFix" result="shape"/>
<feColorMatrix in="SourceAlpha" type="matrix" values="0 0 0 0 0 0 0 0 0 0 0 0 0 0 0 0 0 0 127 0" result="hardAlpha"/>
<feMorphology radius="4" operator="dilate" in="SourceAlpha" result="effect1_innerShadow_10_49"/>
<feOffset/>
<feGaussianBlur stdDeviation="5.8"/>
<feComposite in2="hardAlpha" operator="arithmetic" k2="-1" k3="1"/>
<feColorMatrix type="matrix" values="0 0 0 0 0 0 0 0 0 0 0 0 0 0 0 0 0 0 0.25 0"/>
<feBlend mode="normal" in2="shape" result="effect1_innerShadow_10_49"/>
<feColorMatrix in="SourceAlpha" type="matrix" values="0 0 0 0 0 0 0 0 0 0 0 0 0 0 0 0 0 0 127 0" result="hardAlpha"/>
<feMorphology radius="28" operator="erode" in="SourceAlpha" result="effect2_innerShadow_10_49"/>
<feOffset/>
<feGaussianBlur stdDeviation="19.1"/>
<feComposite in2="hardAlpha" operator="arithmetic" k2="-1" k3="1"/>
<feColorMatrix type="matrix" values="0 0 0 0 0 0 0 0 0 0 0 0 0 0 0 0 0 0 0.09 0"/>
<feBlend mode="normal" in2="effect1_innerShadow_10_49" result="effect2_innerShadow_10_49"/>
<feTurbulence type="fractalNoise" baseFrequency="3.3333332538604736 3.3333332538604736" stitchTiles="stitch" numOctaves="3" result="noise" seed="9409" />
<feColorMatrix in="noise" type="luminanceToAlpha" result="alphaNoise" />
<feComponentTransfer in="alphaNoise" result="coloredNoise1">
<feFuncA type="discrete" tableValues="0 0 0 0 0 0 0 0 0 0 0 0 0 0 1 1 1 1 1 1 1 1 1 1 1 1 1 1 1 1 1 1 1 1 1 1 0 0 0 0 0 0 0 0 0 0 0 0 0 0 0 0 0 0 0 0 0 0 0 0 0 0 0 0 0 0 0 0 0 0 0 0 0 0 0 0 0 0 0 0 0 0 0 0 0 0 0 0 0 0 0 0 0 0 0 0 0 0 0 0 "/>
</feComponentTransfer>
<feComposite operator="in" in2="effect2_innerShadow_10_49" in="coloredNoise1" result="noise1Clipped" />
<feFlood flood-color="rgba(0, 0, 0, 0.1)" result="color1Flood" />
<feComposite operator="in" in2="noise1Clipped" in="color1Flood" result="color1" />
<feMerge result="effect3_noise_10_49">
<feMergeNode in="effect2_innerShadow_10_49" />
<feMergeNode in="color1" />
</feMerge>
</filter>
<filter id="filter2_i_10_49" x="39" y="33" width="115.927" height="134.851" filterUnits="userSpaceOnUse" color-interpolation-filters="sRGB">
<feFlood flood-opacity="0" result="BackgroundImageFix"/>
<feBlend mode="normal" in="SourceGraphic" in2="BackgroundImageFix" result="shape"/>
<feColorMatrix in="SourceAlpha" type="matrix" values="0 0 0 0 0 0 0 0 0 0 0 0 0 0 0 0 0 0 127 0" result="hardAlpha"/>
<feOffset dy="4"/>
<feGaussianBlur stdDeviation="2"/>
<feComposite in2="hardAlpha" operator="arithmetic" k2="-1" k3="1"/>
<feColorMatrix type="matrix" values="0 0 0 0 0 0 0 0 0 0 0 0 0 0 0 0 0 0 0.11 0"/>
<feBlend mode="normal" in2="shape" result="effect1_innerShadow_10_49"/>
</filter>
<filter id="filter3_d_10_49" x="30.7749" y="33" width="133.907" height="146.582" filterUnits="userSpaceOnUse" color-interpolation-filters="sRGB">
<feFlood flood-opacity="0" result="BackgroundImageFix"/>
<feColorMatrix in="SourceAlpha" type="matrix" values="0 0 0 0 0 0 0 0 0 0 0 0 0 0 0 0 0 0 127 0" result="hardAlpha"/>
<feOffset dy="4"/>
<feGaussianBlur stdDeviation="2"/>
<feComposite in2="hardAlpha" operator="out"/>
<feColorMatrix type="matrix" values="0 0 0 0 0 0 0 0 0 0 0 0 0 0 0 0 0 0 0.71 0"/>
<feBlend mode="normal" in2="BackgroundImageFix" result="effect1_dropShadow_10_49"/>
<feBlend mode="normal" in="SourceGraphic" in2="effect1_dropShadow_10_49" result="shape"/>
</filter>
<linearGradient id="paint0_linear_10_49" x1="100" y1="0" x2="100" y2="200" gradientUnits="userSpaceOnUse">
<stop stop-color="#2E2E2E"/>
<stop offset="1" stop-color="#131313"/>
</linearGradient>
<linearGradient id="paint1_linear_10_49" x1="97.7283" y1="33" x2="97.7283" y2="171.582" gradientUnits="userSpaceOnUse">
<stop offset="0.230769" stop-color="#DFF4FF"/>
<stop offset="1" stop-color="#2F4848"/>
</linearGradient>
<clipPath id="clip0_10_49">
<rect width="200" height="200" rx="60" fill="white"/>
</clipPath>
</defs>
</svg>
