<svg width="300" height="360" viewBox="0 0 300 360" fill="none" xmlns="http://www.w3.org/2000/svg">
<path d="M150 0C232.843 0 300 67.1573 300 150C300 187.224 286.439 221.279 263.99 247.5H264C263.894 247.621 263.787 247.74 263.681 247.86C261.853 249.982 259.966 252.051 258.024 254.066C219.228 295.301 169.484 322.457 150 360C127.564 324.366 90.808 300.73 51.9893 263.553C46.3017 258.639 40.988 253.305 36.0947 247.6C36.0632 247.566 36.0315 247.533 36 247.5H36.0098C13.5611 221.279 0 187.224 0 150C0 67.1573 67.1573 0 150 0Z" fill="white"/>
<path d="M275 152C275 221.036 219.036 277 150 277C80.9644 277 25 221.036 25 152C25 82.9644 80.9644 27 150 27C219.036 27 275 82.9644 275 152Z" fill="#1D1D1D"/>
<path d="M140.604 120.511C149.979 120.474 159.692 122.249 167.955 126.679C185.882 136.29 196.991 158.399 207.397 173.293C217.804 188.187 227.508 195.866 226.808 205.857C226.109 215.849 215.006 228.154 203.578 234.892C192.15 241.629 180.395 242.799 171.65 235.271C162.905 227.742 157.169 211.515 146.669 204.544C136.169 197.573 120.905 199.859 105.853 201.136C100.994 201.548 96.1571 201.855 91.4032 201.96C65.3727 201.136 50.9908 172.842 69.0858 163.95C75.5556 160.771 81.97 157.06 86.6346 152.964C96.7045 144.121 98.6188 133.483 111.95 126.72C119.136 123.074 129.64 120.554 140.604 120.511ZM123.637 147.264C122.509 147.264 121.392 147.489 120.35 147.927C119.309 148.364 118.362 149.005 117.564 149.813C116.767 150.622 116.134 151.582 115.702 152.638C115.27 153.694 115.049 154.826 115.049 155.969C115.049 158.277 115.954 160.491 117.564 162.123C119.175 163.755 121.359 164.673 123.637 164.673C124.764 164.673 125.882 164.448 126.924 164.011C127.966 163.573 128.912 162.932 129.71 162.124C130.507 161.316 131.139 160.356 131.571 159.3C132.003 158.244 132.225 157.112 132.225 155.969C132.225 154.826 132.004 153.694 131.572 152.638C131.141 151.582 130.507 150.622 129.71 149.813C128.912 149.005 127.966 148.364 126.924 147.927C125.882 147.489 124.764 147.264 123.637 147.264ZM143.934 107.72L189.888 65.1172L210.751 155.175C210.683 155.094 185.714 125.217 184.267 122.942C181.332 118.327 182.701 93.7969 182.708 93.6787L163.082 112.347C163.082 112.347 127.5 98.6249 101.971 122.878L101.81 64L143.934 107.72Z" fill="white"/>
</svg>
